Coordinates
version=1
nRows=8
nColumns=40
inDegrees=yes

Units are S.I. units (second, meters, Newtons, ...)
If the header above contains a line with 'inDegrees', this indicates whether rotational values are in degrees (yes) or radians (no).

endheader
time	pelvis_tilt	pelvis_list	pelvis_rotation	pelvis_tx	pelvis_ty	pelvis_tz	hip_flexion_r	hip_adduction_r	hip_rotation_r	knee_angle_r	knee_angle_r_beta	ankle_angle_r	subtalar_angle_r	mtp_angle_r	hip_flexion_l	hip_adduction_l	hip_rotation_l	knee_angle_l	knee_angle_l_beta	ankle_angle_l	subtalar_angle_l	mtp_angle_l	lumbar_extension	lumbar_bending	lumbar_rotation	arm_flex_r	arm_add_r	arm_rot_r	elbow_flex_r	pro_sup_r	wrist_flex_r	wrist_dev_r	arm_flex_l	arm_add_l	arm_rot_l	elbow_flex_l	pro_sup_l	wrist_flex_l	wrist_dev_l
      0.88000000	     -0.94987239	    -10.29791338	     89.67831520	      0.23679714	      0.99980812	      0.53034924	     33.18968823	     -0.53381861	     -3.35734919	     46.85709145	      0.81781052	      1.78920284	      0.00000000	      0.00000000	      7.83007546	      3.19293230	      2.74269688	      4.87271726	      0.08504496	      5.27023501	      0.00000000	      0.00000000	     -0.36628189	     -2.30428790	     -3.29456090	      0.00000000	      0.00000000	      0.00000000	      0.00000000	      0.00000000	      0.00000000	      0.00000000	      0.00000000	      0.00000000	      0.00000000	      0.00000000	      0.00000000	      0.00000000	      0.00000000
      0.89000000	     -0.77943794	     -9.99116968	     89.73729111	      0.23666370	      0.99927481	      0.51146040	     33.66956273	     -0.35041018	     -3.79826494	     43.73459705	      0.76331272	      2.17895076	      0.00000000	      0.00000000	      5.85388934	      3.03736683	      2.92303974	      4.07752591	      0.07116625	      5.98258999	      0.00000000	      0.00000000	     -0.68401918	     -2.10168583	     -3.43092509	      0.00000000	      0.00000000	      0.00000000	      0.00000000	      0.00000000	      0.00000000	      0.00000000	      0.00000000	      0.00000000	      0.00000000	      0.00000000	      0.00000000	      0.00000000	      0.00000000
      0.90000000	     -0.74187037	     -9.85015668	     89.78329079	      0.23651794	      0.99783336	      0.49266147	     34.26665060	     -0.29504655	     -4.19326114	     40.46248180	      0.70620353	      2.52681406	      0.00000000	      0.00000000	      4.10113050	      3.02336125	      3.01500547	      3.36664419	      0.05875903	      6.71981145	      0.00000000	      0.00000000	     -0.81929748	     -2.04751290	     -3.62264506	      0.00000000	      0.00000000	      0.00000000	      0.00000000	      0.00000000	      0.00000000	      0.00000000	      0.00000000	      0.00000000	      0.00000000	      0.00000000	      0.00000000	      0.00000000	      0.00000000
      0.91000000	     -0.78203271	     -9.76134712	     89.81635322	      0.23637325	      0.99573335	      0.47389586	     34.82300639	     -0.31695351	     -4.62144145	     36.98049143	      0.64543133	      2.73068089	      0.00000000	      0.00000000	      2.44903406	      3.09768359	      3.14045871	      2.75673033	      0.04811402	      7.52183835	      0.00000000	      0.00000000	     -0.91087343	     -2.08104924	     -3.72283361	      0.00000000	      0.00000000	      0.00000000	      0.00000000	      0.00000000	      0.00000000	      0.00000000	      0.00000000	      0.00000000	      0.00000000	      0.00000000	      0.00000000	      0.00000000	      0.00000000
      0.92000000	     -0.94515416	     -9.85485152	     89.84614048	      0.23620380	      0.99277602	      0.45518345	     35.53335565	     -0.44339010	     -4.98129882	     33.40460035	      0.58302026	      2.90607382	      0.00000000	      0.00000000	      1.02206912	      3.30938250	      3.21043021	      2.20565316	      0.03849591	      8.26804470	      0.00000000	      0.00000000	     -0.80204616	     -2.24997055	     -3.98334827	      0.00000000	      0.00000000	      0.00000000	      0.00000000	      0.00000000	      0.00000000	      0.00000000	      0.00000000	      0.00000000	      0.00000000	      0.00000000	      0.00000000	      0.00000000	      0.00000000
      0.93000000	     -1.08870924	     -9.54980606	     89.86672711	      0.23611647	      0.98989259	      0.43612015	     35.65879041	     -0.54886740	     -5.47986909	     29.57529268	      0.51618623	      2.75545649	      0.00000000	      0.00000000	     -0.92025883	      3.49499158	      3.17078483	      1.52764349	      0.02666241	      8.96398514	      0.00000000	      0.00000000	     -1.16023790	     -2.41078506	     -4.02057556	      0.00000000	      0.00000000	      0.00000000	      0.00000000	      0.00000000	      0.00000000	      0.00000000	      0.00000000	      0.00000000	      0.00000000	      0.00000000	      0.00000000	      0.00000000	      0.00000000
      0.94000000	     -1.33251875	     -9.50427359	     89.88337840	      0.23603402	      0.98620067	      0.41712010	     36.02695017	     -0.72204385	     -5.92110661	     25.68333822	      0.44825881	      2.58045661	      0.00000000	      0.00000000	     -2.54060562	      3.78963852	      3.15420041	      0.94116071	      0.01642635	      9.64131787	      0.00000000	      0.00000000	     -1.23109605	     -2.67412304	     -4.15268936	      0.00000000	      0.00000000	      0.00000000	      0.00000000	      0.00000000	      0.00000000	      0.00000000	      0.00000000	      0.00000000	      0.00000000	      0.00000000	      0.00000000	      0.00000000	      0.00000000
      0.95000000	     -1.62751253	     -9.50751612	     89.89677505	      0.23602144	      0.98205799	      0.39803871	     36.39050733	     -0.90536653	     -6.29446074	     21.75135859	      0.37963282	      2.34969130	      0.00000000	      0.00000000	     -4.09799601	      4.13112239	      3.13560618	      0.39915170	      0.00696651	     10.25633193	      0.00000000	      0.00000000	     -1.24856011	     -2.99678102	     -4.29181145	      0.00000000	      0.00000000	      0.00000000	      0.00000000	      0.00000000	      0.00000000	      0.00000000	      0.00000000	      0.00000000	      0.00000000	      0.00000000	      0.00000000	      0.00000000	      0.00000000
